<svg width="450" height="350" viewBox="0 0 450 350" fill="none" xmlns="http://www.w3.org/2000/svg">
<rect x="50" y="70" width="350" height="230" rx="20" fill="#f3f4f6"/>
<path d="M70 180H410V280C410 291.046 401.046 300 390 300H90C78.9543 300 70 291.046 70 280V180Z" fill="#e5e7eb"/>
<rect x="70" y="70" width="310" height="40" rx="10" fill="#2563eb"/>
<g filter="url(#filter0_d_101_2)">
<rect x="100" y="110" width="120" height="150" rx="15" fill="white" shape-rendering="crispEdges"/>
<rect x="115" y="125" width="90" height="8" rx="4" fill="#d1d5db"/>
<rect x="115" y="145" width="60" height="8" rx="4" fill="#d1d5db"/>
<rect x="115" y="165" width="90" height="8" rx="4" fill="#d1d5db"/>
<rect x="115" y="185" width="40" height="8" rx="4" fill="#d1d5db"/>
<path d="M125 215L135 235" stroke="#2563eb" stroke-width="6" stroke-linecap="round"/>
<path d="M150 215L140 235" stroke="#2563eb" stroke-width="6" stroke-linecap="round"/>
<circle cx="175" cy="225" r="10" fill="#60a5fa"/>
</g>
<g filter="url(#filter1_d_101_2)">
<rect x="250" y="140" width="150" height="120" rx="15" fill="#4f46e5" shape-rendering="crispEdges"/>
<circle cx="280" cy="170" r="10" fill="white"/>
<rect x="300" y="165" width="80" height="10" rx="5" fill="white"/>
<circle cx="280" cy="200" r="10" fill="white"/>
<rect x="300" y="195" width="60" height="10" rx="5" fill="white"/>
</g>
<defs>
<filter id="filter0_d_101_2" x="90" y="104" width="140" height="170" filterUnits="userSpaceOnUse" color-interpolation-filters="sRGB">
<feFlood flood-opacity="0" result="BackgroundImageFix"/>
<feColorMatrix in="SourceAlpha" type="matrix" values="0 0 0 0 0 0 0 0 0 0 0 0 0 0 0 0 0 0 127 0" result="hardAlpha"/>
<feOffset dy="4"/>
<feGaussianBlur stdDeviation="5"/>
<feComposite in2="hardAlpha" operator="out"/>
<feColorMatrix type="matrix" values="0 0 0 0 0 0 0 0 0 0 0 0 0 0 0 0 0 0 0.05 0"/>
<feBlend mode="normal" in2="BackgroundImageFix" result="effect1_dropShadow_101_2"/>
<feBlend mode="normal" in="SourceGraphic" in2="effect1_dropShadow_101_2" result="shape"/>
</filter>
<filter id="filter1_d_101_2" x="240" y="134" width="170" height="140" filterUnits="userSpaceOnUse" color-interpolation-filters="sRGB">
<feFlood flood-opacity="0" result="BackgroundImageFix"/>
<feColorMatrix in="SourceAlpha" type="matrix" values="0 0 0 0 0 0 0 0 0 0 0 0 0 0 0 0 0 0 127 0" result="hardAlpha"/>
<feOffset dy="4"/>
<feGaussianBlur stdDeviation="5"/>
<feComposite in2="hardAlpha" operator="out"/>
<feColorMatrix type="matrix" values="0 0 0 0 0.145098 0 0 0 0 0.388235 0 0 0 0 0.917647 0 0 0 0.1 0"/>
<feBlend mode="normal" in2="BackgroundImageFix" result="effect1_dropShadow_101_2"/>
<feBlend mode="normal" in="SourceGraphic" in2="effect1_dropShadow_101_2" result="shape"/>
</filter>
</defs>
</svg> 